<svg xmlns="http://www.w3.org/2000/svg" width="1440" height="900" viewBox="0 0 1440 900">
<rect width="1440" height="900" fill="#070708"/><rect width="1440" height="78" fill="#111114"/><text x="34" y="48" fill="#fff" font-size="24" font-weight="700">PART<tspan fill="#FF69B4">-</tspan>PROMPTER</text><rect x="1110" y="22" width="122" height="34" rx="17" fill="#163b2c"/><circle cx="1131" cy="39" r="6" fill="#62e69a"/><text x="1145" y="44" fill="#9af0bd" font-size="14">同期中</text><text x="1260" y="44" fill="#aaa" font-size="14">残り 23:42:18</text>
<text x="42" y="130" fill="#fff" font-size="29" font-weight="700">Summer Live 2026</text><text x="42" y="162" fill="#777" font-size="14">マスタコントローラー・曲 3 / 8</text>
<rect x="42" y="195" width="900" height="530" rx="16" fill="#000" stroke="#29292f"/><text x="75" y="242" fill="#777" font-size="15">現在の曲　夏のメロディ</text><text x="75" y="345" fill="#FF69B4" font-size="54" font-weight="700">君と歌う この瞬間を</text><text x="75" y="421" fill="#555" font-size="54" font-weight="700">ずっと忘れないように</text><line x1="75" y1="595" x2="905" y2="595" stroke="#FF69B4" stroke-width="4"/><text x="75" y="647" fill="#777" font-size="28">次のセクション　声を重ねて進もう</text>
<g><rect x="245" y="750" width="64" height="58" rx="10" fill="#202027"/><text x="267" y="787" fill="#fff" font-size="23">⏮</text><rect x="320" y="750" width="64" height="58" rx="10" fill="#202027"/><text x="342" y="787" fill="#fff" font-size="23">◀</text><rect x="395" y="740" width="82" height="70" rx="14" fill="#FF69B4"/><text x="422" y="784" fill="#fff" font-size="25">▶</text><rect x="488" y="750" width="64" height="58" rx="10" fill="#202027"/><text x="510" y="787" fill="#fff" font-size="23">▶</text><rect x="563" y="750" width="64" height="58" rx="10" fill="#202027"/><text x="585" y="787" fill="#fff" font-size="23">⏭</text></g>
<rect x="976" y="112" width="420" height="640" rx="16" fill="#141418" stroke="#303038"/><text x="1006" y="158" fill="#fff" font-size="21" font-weight="700">設定完了端末 2台</text><rect x="1248" y="130" width="118" height="34" rx="17" fill="#302817"/><text x="1266" y="152" fill="#f6c85f" font-size="13">設定中 1台</text>
<rect x="1006" y="182" width="360" height="72" rx="10" fill="#1b2821"/><circle cx="1032" cy="218" r="7" fill="#62e69a"/><text x="1052" y="211" fill="#fff" font-size="16">NOEL iPad</text><text x="1052" y="234" fill="#8fdcac" font-size="13">準備完了</text><text x="1288" y="221" fill="#8fdcac" font-size="14">接続中</text>
<rect x="1006" y="266" width="360" height="72" rx="10" fill="#2a2518"/><circle cx="1032" cy="302" r="7" fill="#f6c85f"/><text x="1052" y="295" fill="#fff" font-size="16">MEI iPad</text><text x="1052" y="318" fill="#e3c56f" font-size="13">担当選択待ち</text><text x="1288" y="305" fill="#8fdcac" font-size="14">接続中</text>
<text x="1006" y="386" fill="#777" font-size="13">設定中の端末は完了するまで詳細を表示しません</text><text x="1006" y="430" fill="#aaa" font-size="14">参加用QRコード</text><rect x="1006" y="448" width="136" height="136" rx="8" fill="#fff"/><g fill="#111"><rect x="1020" y="462" width="34" height="34"/><rect x="1094" y="462" width="34" height="34"/><rect x="1020" y="536" width="34" height="34"/><rect x="1064" y="506" width="14" height="14"/><rect x="1092" y="524" width="18" height="18"/><rect x="1062" y="552" width="16" height="16"/></g><text x="1162" y="486" fill="#fff" font-size="15">必要な端末で</text><text x="1162" y="510" fill="#fff" font-size="15">読み取ります</text><rect x="1162" y="536" width="180" height="42" rx="8" fill="#25252c"/><text x="1197" y="563" fill="#ddd" font-size="14">URLをコピー</text>
<rect x="1006" y="670" width="360" height="48" rx="9" fill="none" stroke="#7e3039"/><text x="1120" y="701" fill="#ff7d87" font-size="15">セッションを終了</text><rect x="976" y="778" width="420" height="58" rx="10" fill="#1d1d23"/><text x="1000" y="813" fill="#bbb" font-size="14">端末設定が完了すると一覧へ自動追加されます</text>
</svg>